#!OML:ASF F:\VICON\USERDATA\INSTALL\Justin_Nancy\Justin_Nancy.ASF
:FULLY-SPECIFIED
:DEGREES
260
root -8.80755 17.4549 0.937863 0.867635 3.79809 1.50593
lowerback 7.01377 -0.939226 -4.19884
upperback 0.0623278 -1.51049 2.0886
thorax -3.70723 -0.657181 4.68894
lowerneck -18.7743 -3.63925 -8.9886
upperneck 22.3604 -3.6172 4.80933
head 10.5453 -1.85238 2.69322
rclavicle 1.95803e-014 -1.35174e-014
rhumerus -29.4575 -13.0232 -80.1521
rradius 32.4391
rwrist 6.42656
rhand -11.8439 6.83697
rfingers 7.12502
rthumb 14.2074 -22.6571
lclavicle 1.95803e-014 -1.35174e-014
lhumerus -26.4404 2.13312 88.2068
lradius 34.7957
lwrist -2.98471
lhand -15.7408 28.624
lfingers 7.12502
lthumb 10.4502 58.3443
rfemur -27.461 8.27659 11.9912
rtibia 29.7022
rfoot -9.19911 2.90108
rtoes -17.0254
lfemur -6.93684 -4.2396 -28.4388
ltibia 26.7347
lfoot -15.6287 -9.93
ltoes 13.5376
261
root -8.80413 17.4435 1.05677 0.766822 4.44974 1.36049
lowerback 6.70546 -1.04357 -4.22904
upperback 0.379774 -1.63285 2.24218
thorax -3.18498 -0.738142 4.86218
lowerneck -18.8022 -3.7098 -9.11578
upperneck 22.1379 -3.67917 4.8534
head 10.4784 -1.88279 2.71791
rclavicle 1.09332e-014 -7.95139e-015
rhumerus -29.0737 -12.8203 -80.1409
rradius 32.3503
rwrist 5.76254
rhand -12.1206 6.86895
rfingers 7.12502
rthumb 13.9408 -22.6437
lclavicle 1.09332e-014 -7.95139e-015
lhumerus -26.0056 2.17016 88.402
lradius 35.0479
lwrist -3.29958
lhand -15.9998 27.9354
lfingers 7.12502
lthumb 10.2003 57.6681
rfemur -27.112 9.50274 11.5093
rtibia 27.7163
rfoot -9.26653 4.37707
rtoes -18.4321
lfemur -6.4315 -4.65981 -28.2783
ltibia 26.8625
lfoot -16.0062 -10.2817
ltoes 13.3674
262
root -8.79751 17.4312 1.17344 0.700917 4.91745 1.35434
lowerback 6.36713 -1.04325 -4.32209
upperback 0.699316 -1.62283 2.30289
thorax -2.66046 -0.753688 4.96065
lowerneck -18.6685 -3.82677 -9.139
upperneck 21.6822 -3.82006 4.7909
head 10.2988 -1.95234 2.67343
rclavicle -3.96575e-014 7.95139e-015
rhumerus -28.7474 -12.9046 -80.0825
rradius 32.3475
rwrist 5.51871
rhand -12.0231 6.84426
rfingers 7.12502
rthumb 14.0347 -22.6619
lclavicle -3.96575e-014 7.95139e-015
lhumerus -25.6209 1.98008 88.598
lradius 35.4114
lwrist -3.3141
lhand -15.1275 30.0521
lfingers 7.12502
lthumb 11.0418 59.7416
rfemur -26.8336 10.4673 10.9723
rtibia 25.9007
rfoot -9.40199 6.32864
rtoes -19.1497
lfemur -5.98256 -4.9888 -28.2998
ltibia 27.0411
lfoot -16.3926 -10.379
ltoes 13.0418
263
root -8.78595 17.4249 1.27592 0.760777 5.21673 1.35818
lowerback 6.53502 -0.919694 -4.13565
upperback 0.609323 -1.45477 2.18552
thorax -2.87519 -0.664303 4.72474
lowerneck -18.2251 -3.90678 -9.07616
upperneck 21.4607 -3.99169 4.80484
head 10.1482 -2.02714 2.64399
rclavicle -2.39039e-014 -1.82882e-014
rhumerus -29.0783 -13.3128 -79.9752
rradius 32.4781
rwrist 5.97612
rhand -11.3382 7.10012
rfingers 7.12502
rthumb 14.6947 -22.3591
lclavicle -2.39039e-014 -1.82882e-014
lhumerus -25.747 1.64388 88.6562
lradius 35.7168
lwrist -3.432
lhand -12.2552 37.1912
lfingers 7.12502
lthumb 13.8111 66.7128
rfemur -26.7886 11.1238 10.533
rtibia 24.3792
rfoot -9.52686 8.59039
rtoes -20.1779
lfemur -5.71745 -5.12173 -28.3341
ltibia 27.1841
lfoot -16.6248 -10.4884
ltoes 13.3098
264
root -8.78417 17.4214 1.37899 0.797177 5.61949 1.06385
lowerback 6.72319 -0.850686 -3.76308
upperback 0.49827 -1.34226 2.17176
thorax -3.11719 -0.60419 4.49627
lowerneck -18.009 -3.9882 -9.08919
upperneck 21.5388 -4.14272 4.87601
head 10.1495 -2.09288 2.65248
rclavicle -2.44008e-014 -9.54166e-015
rhumerus -29.3778 -13.7568 -79.8671
rradius 32.7837
rwrist 7.18881
rhand -10.9415 6.23271
rfingers 7.12502
rthumb 15.0769 -23.1982
lclavicle -2.44008e-014 -9.54166e-015
lhumerus -25.9799 1.28509 88.668
lradius 36.1546
lwrist -3.55561
lhand -4.81896 38.5205
lfingers 7.12502
lthumb 20.9674 67.4072
rfemur -26.7621 11.6544 10.5637
rtibia 23.2038
rfoot -9.42522 10.5633
rtoes -21.1468
lfemur -5.48794 -5.26517 -27.9873
ltibia 27.309
lfoot -16.7498 -10.6715
ltoes 12.512
